<svg width="28" height="28" viewBox="0 0 28 28" fill="none" xmlns="http://www.w3.org/2000/svg">
<ellipse cx="13.9505" cy="14" rx="13.9505" ry="14" fill="#FF6D6D"/>
<path d="M8.60882 11.33C8.61753 11.3485 8.62595 11.3661 8.63401 11.3827C8.66357 11.4435 8.66207 11.3741 8.60882 11.33Z" fill="#FF6D6D"/>
<path d="M4.40717 7.1967C4.42065 7.19991 4.44714 7.20574 4.45599 7.21149C4.67312 7.35285 5.10587 7.68895 5.2297 7.78697C5.81313 8.24882 6.55174 8.8535 7.09668 9.35216C7.57489 9.78975 8.02038 10.2295 8.34602 10.7901C8.43801 10.9485 8.55371 11.2175 8.63401 11.3827C8.66491 11.4463 8.66187 11.3675 8.60121 11.3242" stroke="#FFD075" stroke-width="0.5" stroke-linecap="round"/>
<path d="M4.41937 7.15417C4.7159 6.8144 5.13548 6.67467 5.51524 6.43778C6.26672 5.969 7.06353 5.55976 7.91627 5.30901C8.8308 5.04009 9.7698 4.979 10.7182 5.00573C12.0326 5.04278 13.4001 5.10503 14.6822 5.41774C17.1082 6.00944 19.5161 7.26235 21.2381 9.08661C22.7158 10.6521 23.9803 12.5423 24.7746 14.547C25.0766 15.3094 25.1768 15.7516 25.2776 16.5183C25.3247 16.8771 25.2943 17.0335 25.2776 17.3719" stroke="#FFD075" stroke-width="0.5" stroke-linecap="round"/>
<path d="M25.2576 17.3956C24.4198 17.2017 23.1103 17.2612 22.3871 17.8294" stroke="#FFD075" stroke-width="0.5" stroke-linecap="round"/>
<path d="M8.46843 10.8182H8.42816" stroke="#FFD075" stroke-width="0.5" stroke-linecap="round"/>
<path d="M8.44147 10.8182C8.68895 10.6311 9.13033 10.5996 9.41786 10.549C10.2429 10.4038 11.0733 10.3381 11.9106 10.3966C13.5835 10.5134 15.1796 11.0501 16.6668 11.805C18.2757 12.6216 19.7443 13.6604 20.8446 15.1143C21.4943 15.9729 21.9926 16.9316 22.3447 17.9474C22.545 18.5252 22.4237 18.2521 22.5725 18.7137C22.5725 18.7137 22.6782 18.9108 22.6782 19.1881" stroke="#FFD075" stroke-width="0.5" stroke-linecap="round"/>
<path d="M8.71722 11.4218C8.83791 11.3348 9.09363 11.3632 9.21297 11.3493C10.2073 11.2332 11.2247 11.3069 12.2154 11.4218C13.8465 11.6109 15.476 11.937 16.8917 12.808C18.592 13.854 20.0778 15.3245 21.0429 17.0767C21.3916 17.7099 21.7896 18.4521 21.9157 19.1664" stroke="#FFD075" stroke-width="0.5" stroke-linecap="round"/>
<path d="M22.7145 19.2114C22.4487 19.1707 22.1824 19.1386 21.9157 19.1049" stroke="#FFD075" stroke-width="0.5" stroke-linecap="round"/>
<path d="M8.69438 11.4307C8.74799 11.4128 8.61675 11.5136 8.5716 11.5475C8.3907 11.6836 8.23754 11.8456 8.10858 12.0298" stroke="#FFD075" stroke-width="0.5" stroke-linecap="round"/>
<path d="M7.96857 12.062C8.43205 12.1467 8.41502 12.1406 8.44591 12.1467C9.64127 12.3815 10.7295 12.8928 11.8115 13.4367C13.5447 14.308 15.3034 15.322 16.5642 16.8312" stroke="#FFD075" stroke-width="0.5" stroke-linecap="round"/>
<path d="M7.98241 12.0853C8.31514 12.0853 7.99282 12.0853 7.63581 12.0853C7.35507 12.0853 7.16952 12.1199 6.93174 12.2688C6.08576 12.7982 5.41357 13.5433 4.74743 14.2726C4.45009 14.5981 4.1347 14.9076 3.85166 15.246C3.64137 15.4975 3.34351 15.8208 3.39897 16.1788C3.47273 16.6548 4.04989 17.3066 4.32232 17.6908" stroke="#FFD075" stroke-width="0.5" stroke-linecap="round"/>
<path d="M3.39343 16.1242C3.95074 15.7624 4.49941 15.4731 5.1195 15.2386C6.34663 14.7746 7.60943 14.7368 8.89858 14.9265C11.2394 15.2709 13.8209 16.0594 15.6215 17.6631" stroke="#FFD075" stroke-width="0.5" stroke-linecap="round"/>
<path d="M15.5839 17.9725C15.6709 17.3829 16.1232 17.0571 16.6335 16.8174C17.295 16.8655 17.5865 16.9821 17.8813 17.2749C18.546 17.9351 18.2418 19.2852 17.0396 19.443C16.1694 19.7187 15.4664 18.7694 15.5839 17.9725Z" fill="#FF6D6D" stroke="#FFD075" stroke-width="0.5" stroke-linecap="round"/>
<path d="M21.9023 19.193C21.7011 19.8569 21.4733 20.5138 21.3328 21.1946C21.2522 21.585 21.1911 22.0047 21.1937 22.4062C21.0977 23.0409 21.1937 22.4062 21.1116 23.0562" stroke="#FFD075" stroke-width="0.5" stroke-linecap="round"/>
<path d="M5.1403 15.2784C5.1957 15.2387 5.0277 15.3398 4.9945 15.4768C4.93099 15.7387 4.82263 15.9878 4.74078 16.2446C4.5635 16.8009 4.45298 17.1548 4.35762 17.7402C4.25404 18.3762 4.24227 19.0056 4.34505 19.6412C4.37122 19.8031 4.54839 20.2029 4.55802 20.3665" stroke="#FFD075" stroke-width="0.5" stroke-linecap="round"/>
<path d="M3.58752 20.0061C3.74356 20.4965 3.8847 21.181 4.02549 21.6761C4.15224 22.1219 4.27257 22.8747 4.71784 23.1518C4.87386 23.2489 5.06326 23.2868 5.24524 23.3123C5.80485 23.3908 6.5931 23.2999 7.12332 23.2458C9.14652 23.0391 11.1385 22.6669 13.0468 21.9491C13.9218 21.6199 14.806 21.2408 15.5957 20.7353C15.802 20.6032 16.0042 20.463 16.1904 20.304C16.4672 20.0679 16.689 19.7011 16.8695 19.4859" stroke="#FFD075" stroke-width="0.5" stroke-linecap="round"/>
<path d="M3.63495 20.0318C3.73811 20.0459 3.6619 20.0313 3.83023 20.0984C4.17597 20.2361 4.45025 20.3471 4.82141 20.4549C6.67483 20.9933 8.67116 21.2417 10.5991 21.1236C12.4893 21.0078 14.5216 20.4712 15.8975 19.1131" stroke="#FFD075" stroke-width="0.5" stroke-linecap="round"/>
<path d="M17.0692 19.4327C17.5626 20.557 18.3892 21.3886 19.3992 22.0734C19.9284 22.4321 20.5043 22.7935 21.1035 23.0009" stroke="#FFD075" stroke-width="0.5" stroke-linecap="round"/>
<path d="M9.23016 22.9591C11.3964 23.4243 13.9072 23.5228 16.0699 23.1289C17.0512 22.9502 18.6666 22.5143 19.6281 22.252" stroke="#FFD075" stroke-width="0.5" stroke-linecap="round"/>
</svg>
